<?xml version="1.0" encoding="UTF-8"?>
<svg xmlns="http://www.w3.org/2000/svg" xmlns:xlink="http://www.w3.org/1999/xlink" width="32px" height="14px" viewBox="0 0 31 14" version="1.1">
<g id="surface1">
<path style=" stroke:none;fill-rule:evenodd;fill:rgb(19.215686%,76.470588%,74.117647%);fill-opacity:1;" d="M 3.6875 0.714844 L 6.890625 3.96875 L 10.089844 0.714844 C 10.597656 0.203125 11.414062 0.203125 11.917969 0.714844 L 13.074219 1.890625 C 13.578125 2.402344 13.578125 3.234375 13.074219 3.746094 L 9.871094 7 L 13.074219 10.253906 C 13.578125 10.765625 13.578125 11.597656 13.074219 12.109375 L 11.917969 13.285156 C 11.414062 13.796875 10.597656 13.796875 10.089844 13.285156 L 6.890625 10.03125 L 3.6875 13.285156 C 3.183594 13.796875 2.363281 13.796875 1.859375 13.285156 L 0.703125 12.109375 C 0.199219 11.597656 0.199219 10.765625 0.703125 10.253906 L 3.90625 7 L 0.703125 3.746094 C 0.199219 3.234375 0.199219 2.402344 0.703125 1.890625 L 1.859375 0.714844 C 2.363281 0.203125 3.183594 0.203125 3.6875 0.714844 Z M 3.6875 0.714844 "/>
<path style=" stroke:none;fill-rule:nonzero;fill:rgb(94.901961%,69.411765%,21.568627%);fill-opacity:1;" d="M 24.152344 0 C 27.929688 0 30.988281 3.109375 30.988281 6.941406 C 30.988281 10.777344 27.929688 13.886719 24.152344 13.886719 C 20.378906 13.886719 17.320312 10.777344 17.320312 6.945312 C 17.320312 3.109375 20.378906 0 24.152344 0 Z M 24.152344 4.113281 C 23.152344 4.101562 22.21875 4.636719 21.714844 5.519531 C 21.210938 6.398438 21.210938 7.488281 21.714844 8.367188 C 22.21875 9.25 23.152344 9.785156 24.152344 9.773438 C 25.679688 9.753906 26.902344 8.492188 26.902344 6.941406 C 26.902344 5.394531 25.679688 4.132812 24.152344 4.113281 Z M 24.152344 4.113281 "/>
</g>
</svg>
